# xmcd
#
# Track frame offsets:
#	150
#	17177
#	29253
#	46901
#	65222
#	85878
#	109504
#	128763
#	139833
#	153154
#	173508
#	191194
#	209905
#	228895
#	247086
#
# Disc length: 3493 seconds
#
# Revision: 1
# Processed by: cddbd v1.5.1PL0 Copyright (c) Steve Scherf et al.
# Submitted via: audiograbber 1.83.01
#
DISCID=d10da30f
DTITLE=Garth Brooks - CB90015
DYEAR=1900
DGENRE=Karaoke Country
TTITLE0=If Tomorrow Never Comes
TTITLE1=Not Counting You
TTITLE2=Dance, The
TTITLE3=Friends In Low Places
TTITLE4=Shameless
TTITLE5=That Ol' Wind
TTITLE6=Ain't Goin' Down
TTITLE7=Long Neck Bottle
TTITLE8=She's Gonna Make It
TTITLE9=Dixie Chicken
TTITLE10=Two Pina Coladas
TTITLE11=To Make You Feel My Love
TTITLE12=It's Your Song
TTITLE13=Tearin' It Up and Burnin' It Down
TTITLE14=Uptown Down-Home Good Ol' Boy
EXTD=Chartbuster
EXTT0=
EXTT1=
EXTT2=
EXTT3=
EXTT4=
EXTT5=
EXTT6=
EXTT7=
EXTT8=
EXTT9=
EXTT10=
EXTT11=
EXTT12=
EXTT13=
EXTT14=
PLAYORDER=
